G75*
G70*
%OFA0B0*%
%FSLAX24Y24*%
%IPPOS*%
%LPD*%
%AMOC8*
5,1,8,0,0,1.08239X$1,22.5*
%
%ADD10C,0.0000*%
%ADD11C,0.0740*%
%ADD12R,0.0650X0.0650*%
%ADD13C,0.0650*%
%ADD14C,0.0540*%
%ADD15OC8,0.0560*%
%ADD16C,0.0640*%
%ADD17C,0.0160*%
D10*
X000181Y000181D02*
X000181Y004677D01*
X012051Y004677D01*
X012051Y000181D01*
X000181Y000181D01*
D11*
X000811Y002181D02*
X001551Y002181D01*
X001551Y003181D02*
X000811Y003181D01*
X010811Y003181D02*
X011551Y003181D01*
X011551Y002181D02*
X010811Y002181D01*
D12*
X004681Y001681D03*
D13*
X003181Y001681D03*
X003181Y002681D03*
X004681Y002681D03*
X004181Y003681D03*
X003181Y003681D03*
D14*
X008681Y002666D03*
X008681Y000697D03*
D15*
X008931Y003681D03*
X009931Y003681D03*
D16*
X007001Y003431D02*
X006361Y003431D01*
X006361Y002431D02*
X007001Y002431D01*
X007001Y001431D02*
X006361Y001431D01*
D17*
X006681Y001431D02*
X004681Y001681D01*
X003181Y001681D01*
X006681Y001431D02*
X007697Y000697D01*
X008681Y000697D01*
X010166Y002681D01*
X011181Y003181D01*
X008931Y003681D02*
X008681Y002666D01*
X006681Y003431D02*
X004181Y003681D01*
X003681Y003181D01*
X001181Y003181D01*
M02*
