G75*
G70*
%OFA0B0*%
%FSLAX24Y24*%
%IPPOS*%
%LPD*%
%AMOC8*
5,1,8,0,0,1.08239X$1,22.5*
%
%ADD10OC8,0.0630*%
%ADD11C,0.0394*%
%ADD12R,0.0591X0.0512*%
%ADD13OC8,0.0620*%
%ADD14C,0.0620*%
%ADD15C,0.0600*%
%ADD16C,0.0160*%
%ADD17R,0.0376X0.0376*%
%ADD18C,0.0060*%
D10*
X008510Y002681D03*
X008510Y003681D03*
X008510Y004681D03*
X008510Y005681D03*
X011510Y005681D03*
X011510Y004681D03*
X011510Y003681D03*
X011510Y002681D03*
D11*
X013903Y006307D03*
X013903Y007055D03*
D12*
X013010Y004555D03*
X013010Y003807D03*
X007510Y003807D03*
X007510Y004555D03*
X007510Y006307D03*
X007510Y007055D03*
X006010Y007055D03*
X006010Y006307D03*
X006010Y002055D03*
X006010Y001307D03*
X007510Y001307D03*
X007510Y002055D03*
D13*
X013510Y001681D03*
D14*
X012510Y001681D03*
D15*
X004810Y003181D02*
X004210Y003181D01*
X004210Y004181D02*
X004810Y004181D01*
X004810Y005181D02*
X004210Y005181D01*
D16*
X004510Y005181D02*
X006510Y005181D01*
X007010Y004681D01*
X007510Y004555D01*
X007510Y003807D02*
X007510Y003681D01*
X008010Y003181D01*
X007384Y003681D02*
X007510Y003807D01*
X007384Y003681D02*
X006510Y003681D01*
X006010Y003181D01*
X006010Y002055D01*
X006136Y001307D02*
X007010Y002181D01*
X007384Y002181D01*
X007510Y002055D01*
X007636Y002181D01*
X010510Y002181D01*
X010510Y004181D01*
X011010Y004681D01*
X011510Y004681D01*
X012010Y004181D02*
X012010Y006181D01*
X010510Y007681D01*
X006510Y007681D01*
X006010Y007181D01*
X006884Y006307D01*
X007510Y006307D01*
X007510Y007055D02*
X008636Y007055D01*
X009510Y006181D01*
X009510Y003181D01*
X009010Y002681D01*
X008510Y002681D01*
X007510Y001307D02*
X012136Y001307D01*
X012510Y001681D01*
X011510Y002681D02*
X011010Y003181D01*
X011510Y003681D02*
X012010Y004181D01*
X011636Y003807D02*
X011510Y003681D01*
X011636Y003807D02*
X013010Y003807D01*
X013010Y004555D02*
X013010Y005181D01*
X013903Y006307D02*
X013136Y006807D01*
X013010Y006681D01*
X006010Y006307D02*
X006010Y006181D01*
X004010Y006181D01*
X003510Y005681D01*
X003510Y004681D01*
X004010Y004181D01*
X004510Y004181D01*
X006010Y001307D02*
X006136Y001307D01*
D17*
X008010Y003181D03*
X011010Y003181D03*
X013010Y005181D03*
X013010Y006681D03*
D18*
X006010Y007055D02*
X006010Y007181D01*
M02*
