G75*
G70*
%OFA0B0*%
%FSLAX24Y24*%
%IPPOS*%
%LPD*%
%AMOC8*
5,1,8,0,0,1.08239X$1,22.5*
%
%ADD10OC8,0.0630*%
%ADD11C,0.0394*%
%ADD12OC8,0.0620*%
%ADD13C,0.0620*%
%ADD14C,0.0600*%
%ADD15C,0.0160*%
%ADD16R,0.0376X0.0376*%
D10*
X008510Y002681D03*
X008510Y003681D03*
X008510Y004681D03*
X008510Y005681D03*
X011510Y005681D03*
X011510Y004681D03*
X011510Y003681D03*
X011510Y002681D03*
D11*
X013903Y006307D03*
X013903Y007055D03*
D12*
X013510Y001681D03*
D13*
X012510Y001681D03*
D14*
X004810Y003181D02*
X004210Y003181D01*
X004210Y004181D02*
X004810Y004181D01*
X004810Y005181D02*
X004210Y005181D01*
D15*
X002740Y007947D02*
X002740Y000411D01*
X015150Y000411D01*
X015150Y007947D01*
X002740Y007947D01*
X002740Y007791D02*
X015150Y007791D01*
X015150Y007633D02*
X002740Y007633D01*
X002740Y007474D02*
X015150Y007474D01*
X015150Y007316D02*
X014176Y007316D01*
X014196Y007296D02*
X014144Y007348D01*
X014082Y007389D01*
X014013Y007418D01*
X013940Y007432D01*
X013903Y007432D01*
X013866Y007432D01*
X013793Y007418D01*
X013725Y007389D01*
X013663Y007348D01*
X013611Y007296D01*
X013569Y007234D01*
X013541Y007165D01*
X013526Y007093D01*
X013526Y007056D01*
X013903Y007056D01*
X013903Y007432D01*
X013903Y007056D01*
X013903Y007056D01*
X013903Y007055D01*
X013903Y007055D01*
X013903Y006679D01*
X013866Y006679D01*
X013793Y006693D01*
X013725Y006721D01*
X013663Y006763D01*
X013611Y006815D01*
X013569Y006877D01*
X013541Y006945D01*
X013526Y007018D01*
X013526Y007055D01*
X013903Y007055D01*
X013903Y006679D01*
X013940Y006679D01*
X014013Y006693D01*
X014082Y006721D01*
X014144Y006763D01*
X014196Y006815D01*
X014237Y006877D01*
X014266Y006945D01*
X014280Y007018D01*
X014280Y007055D01*
X013904Y007055D01*
X013904Y007056D01*
X014280Y007056D01*
X014280Y007093D01*
X014266Y007165D01*
X014237Y007234D01*
X014196Y007296D01*
X014267Y007157D02*
X015150Y007157D01*
X015150Y006999D02*
X014276Y006999D01*
X014213Y006840D02*
X015150Y006840D01*
X015150Y006682D02*
X013956Y006682D01*
X013970Y006644D02*
X013836Y006644D01*
X013712Y006593D01*
X013618Y006498D01*
X013566Y006374D01*
X013566Y006240D01*
X013618Y006117D01*
X013712Y006022D01*
X013836Y005971D01*
X013970Y005971D01*
X014094Y006022D01*
X014189Y006117D01*
X014240Y006240D01*
X014240Y006374D01*
X014189Y006498D01*
X014094Y006593D01*
X013970Y006644D01*
X013903Y006682D02*
X013903Y006682D01*
X013851Y006682D02*
X013338Y006682D01*
X013338Y006840D02*
X013594Y006840D01*
X013903Y006840D02*
X013903Y006840D01*
X013903Y006999D02*
X013903Y006999D01*
X013903Y007157D02*
X013903Y007157D01*
X013903Y007316D02*
X013903Y007316D01*
X013631Y007316D02*
X002740Y007316D01*
X002740Y007157D02*
X013539Y007157D01*
X013530Y006999D02*
X013266Y006999D01*
X013256Y007009D02*
X013338Y006928D01*
X013338Y006435D01*
X013256Y006353D01*
X013230Y006353D01*
X013230Y005509D01*
X013256Y005509D01*
X013338Y005428D01*
X013338Y004935D01*
X013256Y004853D01*
X012763Y004853D01*
X012681Y004935D01*
X012681Y005428D01*
X012763Y005509D01*
X012790Y005509D01*
X012790Y006353D01*
X012763Y006353D01*
X012681Y006435D01*
X012681Y006928D01*
X012763Y007009D01*
X013256Y007009D01*
X013010Y006681D02*
X013010Y005181D01*
X013338Y005255D02*
X015150Y005255D01*
X015150Y005413D02*
X013338Y005413D01*
X013230Y005572D02*
X015150Y005572D01*
X015150Y005730D02*
X013230Y005730D01*
X013230Y005889D02*
X015150Y005889D01*
X015150Y006048D02*
X014120Y006048D01*
X014226Y006206D02*
X015150Y006206D01*
X015150Y006365D02*
X014240Y006365D01*
X014164Y006523D02*
X015150Y006523D01*
X013643Y006523D02*
X013338Y006523D01*
X013267Y006365D02*
X013566Y006365D01*
X013581Y006206D02*
X013230Y006206D01*
X013230Y006048D02*
X013687Y006048D01*
X012790Y006048D02*
X011843Y006048D01*
X012002Y005889D02*
X012790Y005889D01*
X012790Y005730D02*
X012005Y005730D01*
X012005Y005682D02*
X012005Y005886D01*
X011715Y006176D01*
X011510Y006176D01*
X011510Y005682D01*
X011509Y005682D01*
X011509Y006176D01*
X011305Y006176D01*
X011015Y005886D01*
X011015Y005682D01*
X011509Y005682D01*
X011509Y005681D01*
X011015Y005681D01*
X011015Y005476D01*
X011305Y005186D01*
X011509Y005186D01*
X011509Y005681D01*
X011510Y005681D01*
X011510Y005682D01*
X012005Y005682D01*
X012005Y005681D02*
X011510Y005681D01*
X011510Y005186D01*
X011715Y005186D01*
X012005Y005476D01*
X012005Y005681D01*
X012005Y005572D02*
X012790Y005572D01*
X012681Y005413D02*
X011942Y005413D01*
X011783Y005255D02*
X012681Y005255D01*
X012681Y005096D02*
X011738Y005096D01*
X011698Y005136D02*
X011321Y005136D01*
X011055Y004870D01*
X011055Y004493D01*
X011321Y004226D01*
X011698Y004226D01*
X011965Y004493D01*
X011965Y004870D01*
X011698Y005136D01*
X011510Y005255D02*
X011509Y005255D01*
X011509Y005413D02*
X011510Y005413D01*
X011509Y005572D02*
X011510Y005572D01*
X011509Y005730D02*
X011510Y005730D01*
X011509Y005889D02*
X011510Y005889D01*
X011509Y006048D02*
X011510Y006048D01*
X011176Y006048D02*
X008787Y006048D01*
X008698Y006136D02*
X008321Y006136D01*
X008055Y005870D01*
X008055Y005493D01*
X008321Y005226D01*
X008698Y005226D01*
X008965Y005493D01*
X008965Y005870D01*
X008698Y006136D01*
X008945Y005889D02*
X011017Y005889D01*
X011015Y005730D02*
X008965Y005730D01*
X008965Y005572D02*
X011015Y005572D01*
X011078Y005413D02*
X008885Y005413D01*
X008726Y005255D02*
X011236Y005255D01*
X011281Y005096D02*
X008738Y005096D01*
X008698Y005136D02*
X008321Y005136D01*
X008055Y004870D01*
X008055Y004493D01*
X008321Y004226D01*
X008698Y004226D01*
X008965Y004493D01*
X008965Y004870D01*
X008698Y005136D01*
X008897Y004938D02*
X011122Y004938D01*
X011055Y004779D02*
X008965Y004779D01*
X008965Y004621D02*
X011055Y004621D01*
X011085Y004462D02*
X008934Y004462D01*
X008775Y004304D02*
X011244Y004304D01*
X011321Y004136D02*
X011055Y003870D01*
X011055Y003509D01*
X010763Y003509D01*
X010681Y003428D01*
X010681Y003401D01*
X008873Y003401D01*
X008965Y003493D01*
X008965Y003870D01*
X008698Y004136D01*
X008321Y004136D01*
X008055Y003870D01*
X008055Y003509D01*
X007763Y003509D01*
X007681Y003428D01*
X007681Y002935D01*
X007715Y002901D01*
X005601Y002901D01*
X005250Y003252D01*
X005250Y003269D01*
X005183Y003431D01*
X005059Y003554D01*
X004897Y003621D01*
X004122Y003621D01*
X003960Y003554D01*
X003837Y003431D01*
X003770Y003269D01*
X003770Y003094D01*
X003837Y002932D01*
X003960Y002808D01*
X004122Y002741D01*
X004897Y002741D01*
X005059Y002808D01*
X005065Y002815D01*
X005290Y002590D01*
X005418Y002461D01*
X008086Y002461D01*
X008321Y002226D01*
X008698Y002226D01*
X008965Y002493D01*
X008965Y002870D01*
X008873Y002961D01*
X010681Y002961D01*
X010681Y002935D01*
X010763Y002853D01*
X011055Y002853D01*
X011055Y002493D01*
X011321Y002226D01*
X011698Y002226D01*
X011965Y002493D01*
X011965Y002870D01*
X011698Y003136D01*
X011338Y003136D01*
X011338Y003226D01*
X011698Y003226D01*
X011965Y003493D01*
X011965Y003870D01*
X011698Y004136D01*
X011321Y004136D01*
X011171Y003986D02*
X008848Y003986D01*
X008965Y003828D02*
X011055Y003828D01*
X011055Y003669D02*
X008965Y003669D01*
X008965Y003511D02*
X011055Y003511D01*
X011010Y003181D02*
X008010Y003181D01*
X007681Y003194D02*
X005308Y003194D01*
X005215Y003352D02*
X007681Y003352D01*
X008055Y003511D02*
X005102Y003511D01*
X004994Y003737D02*
X005061Y003771D01*
X005122Y003815D01*
X005176Y003869D01*
X005220Y003930D01*
X005254Y003997D01*
X005278Y004069D01*
X005290Y004144D01*
X005290Y004161D01*
X004530Y004161D01*
X004530Y004201D01*
X005290Y004201D01*
X005290Y004219D01*
X005278Y004294D01*
X005254Y004366D01*
X005220Y004433D01*
X005176Y004494D01*
X005122Y004548D01*
X005061Y004592D01*
X004994Y004626D01*
X004922Y004650D01*
X004847Y004661D01*
X004530Y004661D01*
X004530Y004202D01*
X004490Y004202D01*
X004490Y004661D01*
X004172Y004661D01*
X004097Y004650D01*
X004025Y004626D01*
X003958Y004592D01*
X003897Y004548D01*
X003843Y004494D01*
X003799Y004433D01*
X003765Y004366D01*
X003741Y004294D01*
X003730Y004219D01*
X003730Y004201D01*
X004489Y004201D01*
X004489Y004161D01*
X003730Y004161D01*
X003730Y004144D01*
X003741Y004069D01*
X003765Y003997D01*
X003799Y003930D01*
X003843Y003869D01*
X003897Y003815D01*
X003958Y003771D01*
X004025Y003737D01*
X004097Y003713D01*
X004172Y003701D01*
X004490Y003701D01*
X004490Y004161D01*
X004530Y004161D01*
X004530Y003701D01*
X004847Y003701D01*
X004922Y003713D01*
X004994Y003737D01*
X005135Y003828D02*
X008055Y003828D01*
X008055Y003669D02*
X002740Y003669D01*
X002740Y003511D02*
X003917Y003511D01*
X003804Y003352D02*
X002740Y003352D01*
X002740Y003194D02*
X003770Y003194D01*
X003794Y003035D02*
X002740Y003035D01*
X002740Y002877D02*
X003892Y002877D01*
X004510Y003181D02*
X005010Y003181D01*
X005510Y002681D01*
X008510Y002681D01*
X008965Y002718D02*
X011055Y002718D01*
X011055Y002560D02*
X008965Y002560D01*
X008873Y002401D02*
X011147Y002401D01*
X011305Y002242D02*
X008714Y002242D01*
X008305Y002242D02*
X002740Y002242D01*
X002740Y002084D02*
X012306Y002084D01*
X012255Y002063D02*
X012420Y002131D01*
X012599Y002131D01*
X012764Y002063D01*
X012891Y001936D01*
X012960Y001771D01*
X012960Y001592D01*
X012891Y001426D01*
X012764Y001300D01*
X012599Y001231D01*
X012420Y001231D01*
X012255Y001300D01*
X012128Y001426D01*
X012060Y001592D01*
X012060Y001771D01*
X012128Y001936D01*
X012255Y002063D01*
X012124Y001925D02*
X002740Y001925D01*
X002740Y001767D02*
X012060Y001767D01*
X012060Y001608D02*
X002740Y001608D01*
X002740Y001450D02*
X012118Y001450D01*
X012276Y001291D02*
X002740Y001291D01*
X002740Y001133D02*
X015150Y001133D01*
X015150Y000974D02*
X002740Y000974D01*
X002740Y000816D02*
X015150Y000816D01*
X015150Y000657D02*
X002740Y000657D01*
X002740Y000499D02*
X015150Y000499D01*
X015150Y001291D02*
X013812Y001291D01*
X013713Y001191D02*
X014000Y001478D01*
X014000Y001681D01*
X013510Y001681D01*
X013510Y001682D01*
X013509Y001682D01*
X013509Y002171D01*
X013307Y002171D01*
X013020Y001884D01*
X013020Y001682D01*
X013509Y001682D01*
X013509Y001681D01*
X013020Y001681D01*
X013020Y001478D01*
X013307Y001191D01*
X013509Y001191D01*
X013509Y001681D01*
X013510Y001681D01*
X013510Y001191D01*
X013713Y001191D01*
X013510Y001291D02*
X013509Y001291D01*
X013509Y001450D02*
X013510Y001450D01*
X013509Y001608D02*
X013510Y001608D01*
X013510Y001682D02*
X014000Y001682D01*
X014000Y001884D01*
X013713Y002171D01*
X013510Y002171D01*
X013510Y001682D01*
X013509Y001767D02*
X013510Y001767D01*
X013509Y001925D02*
X013510Y001925D01*
X013509Y002084D02*
X013510Y002084D01*
X013800Y002084D02*
X015150Y002084D01*
X015150Y002242D02*
X011714Y002242D01*
X011873Y002401D02*
X015150Y002401D01*
X015150Y002560D02*
X011965Y002560D01*
X011965Y002718D02*
X015150Y002718D01*
X015150Y002877D02*
X011958Y002877D01*
X011799Y003035D02*
X015150Y003035D01*
X015150Y003194D02*
X011338Y003194D01*
X011824Y003352D02*
X015150Y003352D01*
X015150Y003511D02*
X011965Y003511D01*
X011965Y003669D02*
X015150Y003669D01*
X015150Y003828D02*
X011965Y003828D01*
X011848Y003986D02*
X015150Y003986D01*
X015150Y004145D02*
X005290Y004145D01*
X005275Y004304D02*
X008244Y004304D01*
X008085Y004462D02*
X005199Y004462D01*
X005005Y004621D02*
X008055Y004621D01*
X008055Y004779D02*
X004988Y004779D01*
X005059Y004808D02*
X004897Y004741D01*
X004122Y004741D01*
X003960Y004808D01*
X003837Y004932D01*
X003770Y005094D01*
X003770Y005269D01*
X003837Y005431D01*
X003960Y005554D01*
X004122Y005621D01*
X004897Y005621D01*
X005059Y005554D01*
X005183Y005431D01*
X005250Y005269D01*
X005250Y005094D01*
X005183Y004932D01*
X005059Y004808D01*
X005185Y004938D02*
X008122Y004938D01*
X008281Y005096D02*
X005250Y005096D01*
X005250Y005255D02*
X008293Y005255D01*
X008134Y005413D02*
X005190Y005413D01*
X005017Y005572D02*
X008055Y005572D01*
X008055Y005730D02*
X002740Y005730D01*
X002740Y005572D02*
X004003Y005572D01*
X003829Y005413D02*
X002740Y005413D01*
X002740Y005255D02*
X003770Y005255D01*
X003770Y005096D02*
X002740Y005096D01*
X002740Y004938D02*
X003834Y004938D01*
X004031Y004779D02*
X002740Y004779D01*
X002740Y004621D02*
X004014Y004621D01*
X003820Y004462D02*
X002740Y004462D01*
X002740Y004304D02*
X003745Y004304D01*
X003730Y004145D02*
X002740Y004145D01*
X002740Y003986D02*
X003770Y003986D01*
X003884Y003828D02*
X002740Y003828D01*
X004490Y003828D02*
X004530Y003828D01*
X004530Y003986D02*
X004490Y003986D01*
X004490Y004145D02*
X004530Y004145D01*
X004530Y004304D02*
X004490Y004304D01*
X004490Y004462D02*
X004530Y004462D01*
X004530Y004621D02*
X004490Y004621D01*
X005249Y003986D02*
X008171Y003986D01*
X007681Y003035D02*
X005467Y003035D01*
X005162Y002718D02*
X002740Y002718D01*
X002740Y002560D02*
X005320Y002560D01*
X002740Y002401D02*
X008147Y002401D01*
X008958Y002877D02*
X010740Y002877D01*
X012714Y002084D02*
X013219Y002084D01*
X013061Y001925D02*
X012896Y001925D01*
X012960Y001767D02*
X013020Y001767D01*
X013020Y001608D02*
X012960Y001608D01*
X012901Y001450D02*
X013048Y001450D01*
X013207Y001291D02*
X012743Y001291D01*
X013971Y001450D02*
X015150Y001450D01*
X015150Y001608D02*
X014000Y001608D01*
X014000Y001767D02*
X015150Y001767D01*
X015150Y001925D02*
X013959Y001925D01*
X015150Y004304D02*
X011775Y004304D01*
X011934Y004462D02*
X015150Y004462D01*
X015150Y004621D02*
X011965Y004621D01*
X011965Y004779D02*
X015150Y004779D01*
X015150Y004938D02*
X013338Y004938D01*
X013338Y005096D02*
X015150Y005096D01*
X012790Y006206D02*
X002740Y006206D01*
X002740Y006048D02*
X008232Y006048D01*
X008074Y005889D02*
X002740Y005889D01*
X002740Y006365D02*
X012752Y006365D01*
X012681Y006523D02*
X002740Y006523D01*
X002740Y006682D02*
X012681Y006682D01*
X012681Y006840D02*
X002740Y006840D01*
X002740Y006999D02*
X012753Y006999D01*
X012681Y004938D02*
X011897Y004938D01*
D16*
X013010Y005181D03*
X013010Y006681D03*
X011010Y003181D03*
X008010Y003181D03*
M02*
