%
M48
M72
T01C0.0276
T02C0.0320
T03C0.0400
T04C0.1300
%
T01
X18259Y15685
X19259Y15685
X26259Y11185
X26259Y10185
T02
X24759Y11685
X23259Y11185
X22259Y11185
X21259Y11185
X20259Y11185
X19259Y11185
X18259Y11185
X17259Y11185
X16259Y11185
X14759Y11685
X13259Y11185
X13259Y10185
X13259Y9185
X14759Y10185
X14759Y8185
X13259Y8185
X10759Y9185
X10759Y11185
X14759Y13685
X16259Y14185
X17259Y14185
X18259Y14185
X19259Y14185
X20259Y14185
X21259Y14185
X22259Y14185
X23259Y14185
X24759Y13685
X23759Y16185
X23759Y18185
X14759Y17185
X13259Y17185
X13259Y18185
X10759Y18185
X10759Y16185
X13259Y16185
X13259Y15185
X14759Y15185
T03
X8759Y5685
X9759Y5685
X10759Y5685
X13259Y5685
X14259Y5685
X15259Y5685
X17759Y5685
X18759Y5685
X19759Y5685
X22259Y5685
X23259Y5685
X24259Y5685
X26759Y5685
X27759Y5685
X28759Y5685
X28759Y8185
X28759Y9185
X28759Y10185
X28759Y11185
X28759Y13615
X28759Y14755
X27789Y16295
X27789Y18075
X25229Y18075
X25229Y16295
X24759Y20685
X25759Y20685
X26759Y20685
X27759Y20685
X23759Y20685
X22759Y20685
X21759Y20685
X20759Y20685
X19259Y20685
X18259Y20685
X17259Y20685
X16259Y20685
X15259Y20685
X14259Y20685
X13259Y20685
X12259Y20685
X15759Y1685
X16759Y1685
X17759Y1685
X18759Y1685
X19759Y1685
X20759Y1685
X22759Y1685
X23759Y1685
X24759Y1685
X25759Y1685
X26759Y1685
X27759Y1685
T04
X28759Y3685
X8759Y20685
M30
