G75*
G70*
%OFA0B0*%
%FSLAX24Y24*%
%IPPOS*%
%LPD*%
%AMOC8*
5,1,8,0,0,1.08239X$1,22.5*
%
%ADD10C,0.0060*%
%ADD11C,0.0030*%
%ADD12C,0.0050*%
%ADD13C,0.0100*%
%ADD14C,0.0040*%
%ADD15C,0.0080*%
%ADD16C,0.0010*%
%ADD17C,0.0020*%
D10*
X009289Y001215D02*
X009716Y001215D01*
X009933Y001215D02*
X010360Y001642D01*
X010360Y001749D01*
X010254Y001856D01*
X010040Y001856D01*
X009933Y001749D01*
X009933Y001215D02*
X010360Y001215D01*
X010578Y001322D02*
X010685Y001215D01*
X010898Y001215D01*
X011005Y001322D01*
X011005Y001749D01*
X010898Y001856D01*
X010685Y001856D01*
X010578Y001749D01*
X010578Y001642D01*
X010685Y001536D01*
X011005Y001536D01*
X011222Y001749D02*
X011329Y001856D01*
X011543Y001856D01*
X011649Y001749D01*
X011649Y001642D01*
X011543Y001536D01*
X011649Y001429D01*
X011649Y001322D01*
X011543Y001215D01*
X011329Y001215D01*
X011222Y001322D01*
X011436Y001536D02*
X011543Y001536D01*
X011867Y001856D02*
X011867Y001215D01*
X012187Y001215D01*
X012294Y001322D01*
X012294Y001749D01*
X012187Y001856D01*
X011867Y001856D01*
X013156Y001749D02*
X013156Y001322D01*
X013583Y001749D01*
X013583Y001322D01*
X013476Y001215D01*
X013263Y001215D01*
X013156Y001322D01*
X013156Y001749D02*
X013263Y001856D01*
X013476Y001856D01*
X013583Y001749D01*
X014123Y001642D02*
X014336Y001856D01*
X014336Y001215D01*
X014123Y001215D02*
X014550Y001215D01*
X013907Y001215D02*
X013801Y001215D01*
X013801Y001322D01*
X013907Y001322D01*
X013907Y001215D01*
X015589Y002260D02*
X015589Y002430D01*
X015645Y002487D01*
X015759Y002487D01*
X015815Y002430D01*
X015815Y002260D01*
X015815Y002374D02*
X015929Y002487D01*
X015872Y002629D02*
X015929Y002685D01*
X015929Y002799D01*
X015872Y002856D01*
X015815Y002856D01*
X015759Y002799D01*
X015759Y002685D01*
X015702Y002629D01*
X015645Y002629D01*
X015589Y002685D01*
X015589Y002799D01*
X015645Y002856D01*
X015589Y002997D02*
X015589Y003224D01*
X015589Y003110D02*
X015929Y003110D01*
X016589Y003238D02*
X016589Y003351D01*
X016645Y003408D01*
X016702Y003408D01*
X016759Y003351D01*
X016815Y003408D01*
X016872Y003408D01*
X016929Y003351D01*
X016929Y003238D01*
X016872Y003181D01*
X016872Y003054D02*
X016929Y003054D01*
X016929Y002997D01*
X016872Y002997D01*
X016872Y003054D01*
X016872Y002856D02*
X016929Y002799D01*
X016929Y002685D01*
X016872Y002629D01*
X016759Y002742D02*
X016759Y002799D01*
X016815Y002856D01*
X016872Y002856D01*
X016759Y002799D02*
X016702Y002856D01*
X016645Y002856D01*
X016589Y002799D01*
X016589Y002685D01*
X016645Y002629D01*
X016759Y002487D02*
X016759Y002260D01*
X016872Y002374D02*
X016645Y002374D01*
X015929Y002260D02*
X015589Y002260D01*
X016589Y003238D02*
X016645Y003181D01*
X016759Y003295D02*
X016759Y003351D01*
X016815Y003549D02*
X016929Y003663D01*
X016815Y003776D01*
X016589Y003776D01*
X016589Y003549D02*
X016815Y003549D01*
X017589Y003224D02*
X017815Y003224D01*
X017929Y003110D01*
X017815Y002997D01*
X017589Y002997D01*
X017589Y002856D02*
X017589Y002629D01*
X017759Y002629D01*
X017702Y002742D01*
X017702Y002799D01*
X017759Y002856D01*
X017872Y002856D01*
X017929Y002799D01*
X017929Y002685D01*
X017872Y002629D01*
X017759Y002487D02*
X017759Y002260D01*
X017872Y002374D02*
X017645Y002374D01*
X018589Y002430D02*
X018589Y002317D01*
X018645Y002260D01*
X018872Y002260D01*
X018929Y002317D01*
X018929Y002430D01*
X018872Y002487D01*
X018759Y002487D01*
X018759Y002374D01*
X018645Y002487D02*
X018589Y002430D01*
X018589Y002629D02*
X018929Y002856D01*
X018589Y002856D01*
X018589Y002997D02*
X018589Y003167D01*
X018645Y003224D01*
X018872Y003224D01*
X018929Y003167D01*
X018929Y002997D01*
X018589Y002997D01*
X018589Y002629D02*
X018929Y002629D01*
X019589Y002629D02*
X019929Y002856D01*
X019589Y002856D01*
X019589Y002997D02*
X019589Y003167D01*
X019645Y003224D01*
X019872Y003224D01*
X019929Y003167D01*
X019929Y002997D01*
X019589Y002997D01*
X019589Y002629D02*
X019929Y002629D01*
X019872Y002487D02*
X019759Y002487D01*
X019759Y002374D01*
X019872Y002487D02*
X019929Y002430D01*
X019929Y002317D01*
X019872Y002260D01*
X019645Y002260D01*
X019589Y002317D01*
X019589Y002430D01*
X019645Y002487D01*
X020589Y002487D02*
X020815Y002487D01*
X020929Y002374D01*
X020815Y002260D01*
X020589Y002260D01*
X020589Y002629D02*
X020589Y002742D01*
X020589Y002685D02*
X020929Y002685D01*
X020929Y002629D02*
X020929Y002742D01*
X020929Y002874D02*
X020589Y002874D01*
X020929Y003101D01*
X020589Y003101D01*
X022589Y002430D02*
X022645Y002487D01*
X022872Y002260D01*
X022929Y002317D01*
X022929Y002430D01*
X022872Y002487D01*
X022645Y002487D01*
X022589Y002430D02*
X022589Y002317D01*
X022645Y002260D01*
X022872Y002260D01*
X023589Y002374D02*
X023929Y002374D01*
X023929Y002487D02*
X023929Y002260D01*
X023702Y002260D02*
X023589Y002374D01*
X023770Y002860D02*
X023770Y003087D01*
X023883Y003201D01*
X023996Y003087D01*
X023996Y002860D01*
X024138Y002860D02*
X024138Y003087D01*
X024308Y003087D01*
X024365Y003030D01*
X024365Y002860D01*
X024506Y002917D02*
X024563Y002974D01*
X024733Y002974D01*
X024733Y003030D02*
X024733Y002860D01*
X024563Y002860D01*
X024506Y002917D01*
X024563Y003087D02*
X024676Y003087D01*
X024733Y003030D01*
X024875Y002860D02*
X024988Y002860D01*
X024931Y002860D02*
X024931Y003201D01*
X024875Y003201D01*
X025120Y003030D02*
X025120Y002917D01*
X025177Y002860D01*
X025290Y002860D01*
X025347Y002917D01*
X025347Y003030D01*
X025290Y003087D01*
X025177Y003087D01*
X025120Y003030D01*
X025488Y003030D02*
X025488Y002917D01*
X025545Y002860D01*
X025715Y002860D01*
X025715Y002804D02*
X025715Y003087D01*
X025545Y003087D01*
X025488Y003030D01*
X025602Y002747D02*
X025659Y002747D01*
X025715Y002804D01*
X025702Y002487D02*
X025759Y002430D01*
X025815Y002487D01*
X025872Y002487D01*
X025929Y002430D01*
X025929Y002317D01*
X025872Y002260D01*
X025759Y002374D02*
X025759Y002430D01*
X025702Y002487D02*
X025645Y002487D01*
X025589Y002430D01*
X025589Y002317D01*
X025645Y002260D01*
X024929Y002260D02*
X024702Y002487D01*
X024645Y002487D01*
X024589Y002430D01*
X024589Y002317D01*
X024645Y002260D01*
X024929Y002260D02*
X024929Y002487D01*
X023996Y003030D02*
X023770Y003030D01*
X026225Y002860D02*
X026338Y002860D01*
X026282Y002860D02*
X026282Y003201D01*
X026338Y003201D02*
X026225Y003201D01*
X026471Y003087D02*
X026641Y003087D01*
X026697Y003030D01*
X026697Y002860D01*
X026471Y002860D02*
X026471Y003087D01*
X026759Y002487D02*
X026759Y002260D01*
X026589Y002430D01*
X026929Y002430D01*
X027589Y002487D02*
X027589Y002260D01*
X027759Y002260D01*
X027702Y002374D01*
X027702Y002430D01*
X027759Y002487D01*
X027872Y002487D01*
X027929Y002430D01*
X027929Y002317D01*
X027872Y002260D01*
X015109Y008585D02*
X015109Y008685D01*
X015059Y008735D01*
X015059Y009635D01*
X015109Y009685D01*
X015109Y009785D01*
X015107Y009802D01*
X015103Y009819D01*
X015096Y009835D01*
X015086Y009849D01*
X015073Y009862D01*
X015059Y009872D01*
X015043Y009879D01*
X015026Y009883D01*
X015009Y009885D01*
X014509Y009885D02*
X014492Y009883D01*
X014475Y009879D01*
X014459Y009872D01*
X014445Y009862D01*
X014432Y009849D01*
X014422Y009835D01*
X014415Y009819D01*
X014411Y009802D01*
X014409Y009785D01*
X014409Y009685D01*
X014459Y009635D01*
X014459Y008735D01*
X014409Y008685D01*
X014409Y008585D01*
X014411Y008568D01*
X014415Y008551D01*
X014422Y008535D01*
X014432Y008521D01*
X014445Y008508D01*
X014459Y008498D01*
X014475Y008491D01*
X014492Y008487D01*
X014509Y008485D01*
X015009Y008485D02*
X015026Y008487D01*
X015043Y008491D01*
X015059Y008498D01*
X015073Y008508D01*
X015086Y008521D01*
X015096Y008535D01*
X015103Y008551D01*
X015107Y008568D01*
X015109Y008585D01*
X012891Y009159D02*
X012856Y009129D01*
X012823Y009098D01*
X012793Y009063D01*
X012766Y009027D01*
X012742Y008989D01*
X012720Y008949D01*
X012702Y008907D01*
X012686Y008864D01*
X012674Y008820D01*
X012666Y008776D01*
X012661Y008730D01*
X012659Y008685D01*
X012661Y008640D01*
X012666Y008594D01*
X012674Y008550D01*
X012686Y008506D01*
X012702Y008463D01*
X012720Y008421D01*
X012742Y008381D01*
X012766Y008343D01*
X012793Y008307D01*
X012823Y008272D01*
X012856Y008241D01*
X012891Y008211D01*
X013859Y008685D02*
X013857Y008731D01*
X013852Y008777D01*
X013843Y008823D01*
X013831Y008868D01*
X013815Y008911D01*
X013796Y008953D01*
X013773Y008994D01*
X013748Y009033D01*
X013720Y009069D01*
X013689Y009104D01*
X013655Y009136D01*
X013619Y009165D01*
X013859Y008685D02*
X013857Y008638D01*
X013851Y008590D01*
X013842Y008544D01*
X013829Y008498D01*
X013813Y008454D01*
X013793Y008410D01*
X013769Y008369D01*
X013743Y008330D01*
X013713Y008293D01*
X013680Y008258D01*
X013645Y008226D01*
X013608Y008197D01*
X011109Y009585D02*
X011109Y009685D01*
X011059Y009735D01*
X011059Y010635D01*
X011109Y010685D01*
X011109Y010785D01*
X011107Y010802D01*
X011103Y010819D01*
X011096Y010835D01*
X011086Y010849D01*
X011073Y010862D01*
X011059Y010872D01*
X011043Y010879D01*
X011026Y010883D01*
X011009Y010885D01*
X010509Y010885D02*
X010492Y010883D01*
X010475Y010879D01*
X010459Y010872D01*
X010445Y010862D01*
X010432Y010849D01*
X010422Y010835D01*
X010415Y010819D01*
X010411Y010802D01*
X010409Y010785D01*
X010409Y010685D01*
X010459Y010635D01*
X010459Y009735D01*
X010409Y009685D01*
X010409Y009585D01*
X010411Y009568D01*
X010415Y009551D01*
X010422Y009535D01*
X010432Y009521D01*
X010445Y009508D01*
X010459Y009498D01*
X010475Y009491D01*
X010492Y009487D01*
X010509Y009485D01*
X011009Y009485D02*
X011026Y009487D01*
X011043Y009491D01*
X011059Y009498D01*
X011073Y009508D01*
X011086Y009521D01*
X011096Y009535D01*
X011103Y009551D01*
X011107Y009568D01*
X011109Y009585D01*
X013627Y010211D02*
X013662Y010241D01*
X013695Y010272D01*
X013725Y010307D01*
X013752Y010343D01*
X013776Y010381D01*
X013798Y010421D01*
X013816Y010463D01*
X013832Y010506D01*
X013844Y010550D01*
X013852Y010594D01*
X013857Y010640D01*
X013859Y010685D01*
X013857Y010730D01*
X013852Y010776D01*
X013844Y010820D01*
X013832Y010864D01*
X013816Y010907D01*
X013798Y010949D01*
X013776Y010989D01*
X013752Y011027D01*
X013725Y011063D01*
X013695Y011098D01*
X013662Y011129D01*
X013627Y011159D01*
X012659Y010685D02*
X012661Y010639D01*
X012666Y010593D01*
X012675Y010547D01*
X012687Y010502D01*
X012703Y010459D01*
X012722Y010417D01*
X012745Y010376D01*
X012770Y010337D01*
X012798Y010301D01*
X012829Y010266D01*
X012863Y010234D01*
X012899Y010205D01*
X012659Y010685D02*
X012661Y010732D01*
X012667Y010780D01*
X012676Y010826D01*
X012689Y010872D01*
X012705Y010916D01*
X012725Y010960D01*
X012749Y011001D01*
X012775Y011040D01*
X012805Y011077D01*
X012838Y011112D01*
X012873Y011144D01*
X012910Y011173D01*
X014409Y012085D02*
X014409Y012185D01*
X014459Y012235D01*
X014459Y013135D01*
X014409Y013185D01*
X014409Y013285D01*
X014411Y013302D01*
X014415Y013319D01*
X014422Y013335D01*
X014432Y013349D01*
X014445Y013362D01*
X014459Y013372D01*
X014475Y013379D01*
X014492Y013383D01*
X014509Y013385D01*
X015009Y013385D02*
X015026Y013383D01*
X015043Y013379D01*
X015059Y013372D01*
X015073Y013362D01*
X015086Y013349D01*
X015096Y013335D01*
X015103Y013319D01*
X015107Y013302D01*
X015109Y013285D01*
X015109Y013185D01*
X015059Y013135D01*
X015059Y012235D01*
X015109Y012185D01*
X015109Y012085D01*
X015107Y012068D01*
X015103Y012051D01*
X015096Y012035D01*
X015086Y012021D01*
X015073Y012008D01*
X015059Y011998D01*
X015043Y011991D01*
X015026Y011987D01*
X015009Y011985D01*
X014509Y011985D02*
X014492Y011987D01*
X014475Y011991D01*
X014459Y011998D01*
X014445Y012008D01*
X014432Y012021D01*
X014422Y012035D01*
X014415Y012051D01*
X014411Y012068D01*
X014409Y012085D01*
X015759Y012285D02*
X015759Y011535D01*
X023759Y011535D01*
X023759Y013835D01*
X015759Y013835D01*
X015759Y013085D01*
X015798Y013083D01*
X015837Y013077D01*
X015875Y013068D01*
X015912Y013055D01*
X015948Y013038D01*
X015981Y013018D01*
X016013Y012994D01*
X016042Y012968D01*
X016068Y012939D01*
X016092Y012907D01*
X016112Y012874D01*
X016129Y012838D01*
X016142Y012801D01*
X016151Y012763D01*
X016157Y012724D01*
X016159Y012685D01*
X016157Y012646D01*
X016151Y012607D01*
X016142Y012569D01*
X016129Y012532D01*
X016112Y012496D01*
X016092Y012463D01*
X016068Y012431D01*
X016042Y012402D01*
X016013Y012376D01*
X015981Y012352D01*
X015948Y012332D01*
X015912Y012315D01*
X015875Y012302D01*
X015837Y012293D01*
X015798Y012287D01*
X015759Y012285D01*
X015109Y015585D02*
X015109Y015685D01*
X015059Y015735D01*
X015059Y016635D01*
X015109Y016685D01*
X015109Y016785D01*
X015107Y016802D01*
X015103Y016819D01*
X015096Y016835D01*
X015086Y016849D01*
X015073Y016862D01*
X015059Y016872D01*
X015043Y016879D01*
X015026Y016883D01*
X015009Y016885D01*
X014509Y016885D02*
X014492Y016883D01*
X014475Y016879D01*
X014459Y016872D01*
X014445Y016862D01*
X014432Y016849D01*
X014422Y016835D01*
X014415Y016819D01*
X014411Y016802D01*
X014409Y016785D01*
X014409Y016685D01*
X014459Y016635D01*
X014459Y015735D01*
X014409Y015685D01*
X014409Y015585D01*
X014411Y015568D01*
X014415Y015551D01*
X014422Y015535D01*
X014432Y015521D01*
X014445Y015508D01*
X014459Y015498D01*
X014475Y015491D01*
X014492Y015487D01*
X014509Y015485D01*
X015009Y015485D02*
X015026Y015487D01*
X015043Y015491D01*
X015059Y015498D01*
X015073Y015508D01*
X015086Y015521D01*
X015096Y015535D01*
X015103Y015551D01*
X015107Y015568D01*
X015109Y015585D01*
X012891Y016159D02*
X012856Y016129D01*
X012823Y016098D01*
X012793Y016063D01*
X012766Y016027D01*
X012742Y015989D01*
X012720Y015949D01*
X012702Y015907D01*
X012686Y015864D01*
X012674Y015820D01*
X012666Y015776D01*
X012661Y015730D01*
X012659Y015685D01*
X012661Y015640D01*
X012666Y015594D01*
X012674Y015550D01*
X012686Y015506D01*
X012702Y015463D01*
X012720Y015421D01*
X012742Y015381D01*
X012766Y015343D01*
X012793Y015307D01*
X012823Y015272D01*
X012856Y015241D01*
X012891Y015211D01*
X013859Y015685D02*
X013857Y015731D01*
X013852Y015777D01*
X013843Y015823D01*
X013831Y015868D01*
X013815Y015911D01*
X013796Y015953D01*
X013773Y015994D01*
X013748Y016033D01*
X013720Y016069D01*
X013689Y016104D01*
X013655Y016136D01*
X013619Y016165D01*
X013859Y015685D02*
X013857Y015638D01*
X013851Y015590D01*
X013842Y015544D01*
X013829Y015498D01*
X013813Y015454D01*
X013793Y015410D01*
X013769Y015369D01*
X013743Y015330D01*
X013713Y015293D01*
X013680Y015258D01*
X013645Y015226D01*
X013608Y015197D01*
X011109Y016585D02*
X011109Y016685D01*
X011059Y016735D01*
X011059Y017635D01*
X011109Y017685D01*
X011109Y017785D01*
X011107Y017802D01*
X011103Y017819D01*
X011096Y017835D01*
X011086Y017849D01*
X011073Y017862D01*
X011059Y017872D01*
X011043Y017879D01*
X011026Y017883D01*
X011009Y017885D01*
X010509Y017885D02*
X010492Y017883D01*
X010475Y017879D01*
X010459Y017872D01*
X010445Y017862D01*
X010432Y017849D01*
X010422Y017835D01*
X010415Y017819D01*
X010411Y017802D01*
X010409Y017785D01*
X010409Y017685D01*
X010459Y017635D01*
X010459Y016735D01*
X010409Y016685D01*
X010409Y016585D01*
X010411Y016568D01*
X010415Y016551D01*
X010422Y016535D01*
X010432Y016521D01*
X010445Y016508D01*
X010459Y016498D01*
X010475Y016491D01*
X010492Y016487D01*
X010509Y016485D01*
X011009Y016485D02*
X011026Y016487D01*
X011043Y016491D01*
X011059Y016498D01*
X011073Y016508D01*
X011086Y016521D01*
X011096Y016535D01*
X011103Y016551D01*
X011107Y016568D01*
X011109Y016585D01*
X013627Y017211D02*
X013662Y017241D01*
X013695Y017272D01*
X013725Y017307D01*
X013752Y017343D01*
X013776Y017381D01*
X013798Y017421D01*
X013816Y017463D01*
X013832Y017506D01*
X013844Y017550D01*
X013852Y017594D01*
X013857Y017640D01*
X013859Y017685D01*
X013857Y017730D01*
X013852Y017776D01*
X013844Y017820D01*
X013832Y017864D01*
X013816Y017907D01*
X013798Y017949D01*
X013776Y017989D01*
X013752Y018027D01*
X013725Y018063D01*
X013695Y018098D01*
X013662Y018129D01*
X013627Y018159D01*
X012659Y017685D02*
X012661Y017639D01*
X012666Y017593D01*
X012675Y017547D01*
X012687Y017502D01*
X012703Y017459D01*
X012722Y017417D01*
X012745Y017376D01*
X012770Y017337D01*
X012798Y017301D01*
X012829Y017266D01*
X012863Y017234D01*
X012899Y017205D01*
X012659Y017685D02*
X012661Y017732D01*
X012667Y017780D01*
X012676Y017826D01*
X012689Y017872D01*
X012705Y017916D01*
X012725Y017960D01*
X012749Y018001D01*
X012775Y018040D01*
X012805Y018077D01*
X012838Y018112D01*
X012873Y018144D01*
X012910Y018173D01*
X012429Y018742D02*
X012202Y018742D01*
X012089Y018856D01*
X012202Y018969D01*
X012429Y018969D01*
X012429Y019110D02*
X012089Y019110D01*
X012089Y019281D01*
X012145Y019337D01*
X012259Y019337D01*
X012315Y019281D01*
X012315Y019110D01*
X012315Y019224D02*
X012429Y019337D01*
X012429Y019479D02*
X012429Y019706D01*
X012429Y019847D02*
X012089Y019847D01*
X012089Y020074D01*
X012259Y019960D02*
X012259Y019847D01*
X012089Y019706D02*
X012089Y019479D01*
X012429Y019479D01*
X012259Y019479D02*
X012259Y019592D01*
X012259Y018969D02*
X012259Y018742D01*
X013089Y019167D02*
X013145Y019110D01*
X013372Y019110D01*
X013429Y019167D01*
X013429Y019281D01*
X013372Y019337D01*
X013259Y019337D01*
X013259Y019224D01*
X013145Y019337D02*
X013089Y019281D01*
X013089Y019167D01*
X013089Y019479D02*
X013429Y019706D01*
X013089Y019706D01*
X013089Y019847D02*
X013089Y020017D01*
X013145Y020074D01*
X013372Y020074D01*
X013429Y020017D01*
X013429Y019847D01*
X013089Y019847D01*
X013089Y019479D02*
X013429Y019479D01*
X014089Y019592D02*
X014429Y019592D01*
X014429Y019479D02*
X014429Y019706D01*
X014372Y019847D02*
X014429Y019904D01*
X014429Y020017D01*
X014372Y020074D01*
X014315Y020074D01*
X014259Y020017D01*
X014259Y019960D01*
X014259Y020017D02*
X014202Y020074D01*
X014145Y020074D01*
X014089Y020017D01*
X014089Y019904D01*
X014145Y019847D01*
X014089Y019592D02*
X014202Y019479D01*
X015089Y019592D02*
X015429Y019592D01*
X015429Y019479D02*
X015429Y019706D01*
X015429Y019847D02*
X015202Y020074D01*
X015145Y020074D01*
X015089Y020017D01*
X015089Y019904D01*
X015145Y019847D01*
X015089Y019592D02*
X015202Y019479D01*
X015429Y019847D02*
X015429Y020074D01*
X016089Y019960D02*
X016429Y019960D01*
X016429Y019847D02*
X016429Y020074D01*
X016202Y019847D02*
X016089Y019960D01*
X016089Y019592D02*
X016429Y019592D01*
X016429Y019479D02*
X016429Y019706D01*
X016202Y019479D02*
X016089Y019592D01*
X017089Y019592D02*
X017202Y019479D01*
X017089Y019592D02*
X017429Y019592D01*
X017429Y019479D02*
X017429Y019706D01*
X017372Y019847D02*
X017145Y019847D01*
X017089Y019904D01*
X017089Y020017D01*
X017145Y020074D01*
X017372Y019847D01*
X017429Y019904D01*
X017429Y020017D01*
X017372Y020074D01*
X017145Y020074D01*
X018089Y020017D02*
X018089Y019904D01*
X018145Y019847D01*
X018202Y019847D01*
X018259Y019904D01*
X018259Y020074D01*
X018372Y020074D02*
X018145Y020074D01*
X018089Y020017D01*
X018372Y020074D02*
X018429Y020017D01*
X018429Y019904D01*
X018372Y019847D01*
X019089Y019904D02*
X019089Y020017D01*
X019145Y020074D01*
X019202Y020074D01*
X019259Y020017D01*
X019259Y019904D01*
X019202Y019847D01*
X019145Y019847D01*
X019089Y019904D01*
X019259Y019904D02*
X019315Y019847D01*
X019372Y019847D01*
X019429Y019904D01*
X019429Y020017D01*
X019372Y020074D01*
X019315Y020074D01*
X019259Y020017D01*
X020589Y020074D02*
X020589Y019847D01*
X020589Y020074D02*
X020645Y020074D01*
X020872Y019847D01*
X020929Y019847D01*
X021589Y020074D02*
X021645Y019960D01*
X021759Y019847D01*
X021759Y020017D01*
X021815Y020074D01*
X021872Y020074D01*
X021929Y020017D01*
X021929Y019904D01*
X021872Y019847D01*
X021759Y019847D01*
X022589Y019847D02*
X022759Y019847D01*
X022702Y019960D01*
X022702Y020017D01*
X022759Y020074D01*
X022872Y020074D01*
X022929Y020017D01*
X022929Y019904D01*
X022872Y019847D01*
X022589Y019847D02*
X022589Y020074D01*
X023589Y020017D02*
X023759Y019847D01*
X023759Y020074D01*
X023929Y020017D02*
X023589Y020017D01*
X024589Y020017D02*
X024589Y019904D01*
X024645Y019847D01*
X024759Y019960D02*
X024759Y020017D01*
X024815Y020074D01*
X024872Y020074D01*
X024929Y020017D01*
X024929Y019904D01*
X024872Y019847D01*
X024759Y020017D02*
X024702Y020074D01*
X024645Y020074D01*
X024589Y020017D01*
X025589Y020017D02*
X025589Y019904D01*
X025645Y019847D01*
X025589Y020017D02*
X025645Y020074D01*
X025702Y020074D01*
X025929Y019847D01*
X025929Y020074D01*
X026589Y020074D02*
X026929Y019847D01*
X026929Y020074D02*
X026589Y019847D01*
X026589Y019706D02*
X026589Y019479D01*
X026589Y019592D02*
X026929Y019592D01*
X027589Y019649D02*
X027589Y019479D01*
X027929Y019479D01*
X027815Y019479D02*
X027815Y019649D01*
X027759Y019706D01*
X027645Y019706D01*
X027589Y019649D01*
X027589Y019847D02*
X027929Y020074D01*
X027929Y019847D02*
X027589Y020074D01*
X027929Y019706D02*
X027815Y019592D01*
X024109Y017785D02*
X024109Y017685D01*
X024059Y017635D01*
X024059Y016735D01*
X024109Y016685D01*
X024109Y016585D01*
X024107Y016568D01*
X024103Y016551D01*
X024096Y016535D01*
X024086Y016521D01*
X024073Y016508D01*
X024059Y016498D01*
X024043Y016491D01*
X024026Y016487D01*
X024009Y016485D01*
X023509Y016485D02*
X023492Y016487D01*
X023475Y016491D01*
X023459Y016498D01*
X023445Y016508D01*
X023432Y016521D01*
X023422Y016535D01*
X023415Y016551D01*
X023411Y016568D01*
X023409Y016585D01*
X023409Y016685D01*
X023459Y016735D01*
X023459Y017635D01*
X023409Y017685D01*
X023409Y017785D01*
X023411Y017802D01*
X023415Y017819D01*
X023422Y017835D01*
X023432Y017849D01*
X023445Y017862D01*
X023459Y017872D01*
X023475Y017879D01*
X023492Y017883D01*
X023509Y017885D01*
X024009Y017885D02*
X024026Y017883D01*
X024043Y017879D01*
X024059Y017872D01*
X024073Y017862D01*
X024086Y017849D01*
X024096Y017835D01*
X024103Y017819D01*
X024107Y017802D01*
X024109Y017785D01*
X024409Y013285D02*
X024409Y013185D01*
X024459Y013135D01*
X024459Y012235D01*
X024409Y012185D01*
X024409Y012085D01*
X024411Y012068D01*
X024415Y012051D01*
X024422Y012035D01*
X024432Y012021D01*
X024445Y012008D01*
X024459Y011998D01*
X024475Y011991D01*
X024492Y011987D01*
X024509Y011985D01*
X025009Y011985D02*
X025026Y011987D01*
X025043Y011991D01*
X025059Y011998D01*
X025073Y012008D01*
X025086Y012021D01*
X025096Y012035D01*
X025103Y012051D01*
X025107Y012068D01*
X025109Y012085D01*
X025109Y012185D01*
X025059Y012235D01*
X025059Y013135D01*
X025109Y013185D01*
X025109Y013285D01*
X025107Y013302D01*
X025103Y013319D01*
X025096Y013335D01*
X025086Y013349D01*
X025073Y013362D01*
X025059Y013372D01*
X025043Y013379D01*
X025026Y013383D01*
X025009Y013385D01*
X024509Y013385D02*
X024492Y013383D01*
X024475Y013379D01*
X024459Y013372D01*
X024445Y013362D01*
X024432Y013349D01*
X024422Y013335D01*
X024415Y013319D01*
X024411Y013302D01*
X024409Y013285D01*
X009289Y001856D02*
X009289Y001215D01*
D11*
X009559Y006700D02*
X009559Y006947D01*
X009559Y007069D02*
X009497Y007192D01*
X009497Y007254D01*
X009559Y007316D01*
X009682Y007316D01*
X009744Y007254D01*
X009744Y007130D01*
X009682Y007069D01*
X009559Y007069D02*
X009374Y007069D01*
X009374Y007316D01*
X009374Y007437D02*
X009620Y007437D01*
X009744Y007560D01*
X009620Y007684D01*
X009374Y007684D01*
X008744Y007622D02*
X008744Y007437D01*
X008374Y007437D01*
X008374Y007622D01*
X008435Y007684D01*
X008682Y007684D01*
X008744Y007622D01*
X008744Y007316D02*
X008374Y007316D01*
X008374Y007069D02*
X008744Y007316D01*
X008744Y007069D02*
X008374Y007069D01*
X008435Y006947D02*
X008374Y006886D01*
X008374Y006762D01*
X008435Y006700D01*
X008682Y006700D01*
X008744Y006762D01*
X008744Y006886D01*
X008682Y006947D01*
X008559Y006947D01*
X008559Y006824D01*
X009435Y006824D02*
X009682Y006824D01*
X010374Y006886D02*
X010374Y006762D01*
X010435Y006700D01*
X010497Y006700D01*
X010559Y006762D01*
X010559Y006886D01*
X010620Y006947D01*
X010682Y006947D01*
X010744Y006886D01*
X010744Y006762D01*
X010682Y006700D01*
X010435Y006947D02*
X010374Y006886D01*
X010374Y007069D02*
X010374Y007192D01*
X010374Y007130D02*
X010744Y007130D01*
X010744Y007069D02*
X010744Y007192D01*
X010682Y007314D02*
X010744Y007376D01*
X010744Y007499D01*
X010682Y007561D01*
X010559Y007561D01*
X010559Y007438D01*
X010435Y007561D02*
X010374Y007499D01*
X010374Y007376D01*
X010435Y007314D01*
X010682Y007314D01*
D12*
X008236Y004240D02*
X008086Y004240D01*
X008161Y004240D02*
X008161Y004691D01*
X008086Y004691D02*
X008236Y004691D01*
X008393Y004691D02*
X008618Y004691D01*
X008693Y004616D01*
X008693Y004466D01*
X008618Y004390D01*
X008393Y004390D01*
X008393Y004240D02*
X008393Y004691D01*
X008543Y004390D02*
X008693Y004240D01*
X008853Y004240D02*
X009154Y004240D01*
X009004Y004240D02*
X009004Y004691D01*
X008853Y004541D01*
X012754Y004631D02*
X012904Y004631D01*
X012829Y004631D02*
X012829Y004180D01*
X012754Y004180D02*
X012904Y004180D01*
X013061Y004180D02*
X013061Y004631D01*
X013286Y004631D01*
X013361Y004556D01*
X013361Y004406D01*
X013286Y004330D01*
X013061Y004330D01*
X013211Y004330D02*
X013361Y004180D01*
X013521Y004180D02*
X013821Y004481D01*
X013821Y004556D01*
X013746Y004631D01*
X013596Y004631D01*
X013521Y004556D01*
X013521Y004180D02*
X013821Y004180D01*
X017336Y004240D02*
X017486Y004240D01*
X017411Y004240D02*
X017411Y004691D01*
X017336Y004691D02*
X017486Y004691D01*
X017643Y004691D02*
X017868Y004691D01*
X017943Y004616D01*
X017943Y004466D01*
X017868Y004390D01*
X017643Y004390D01*
X017643Y004240D02*
X017643Y004691D01*
X018103Y004616D02*
X018179Y004691D01*
X018329Y004691D01*
X018404Y004616D01*
X018404Y004541D01*
X018329Y004466D01*
X018404Y004390D01*
X018404Y004315D01*
X018329Y004240D01*
X018179Y004240D01*
X018103Y004315D01*
X017943Y004240D02*
X017793Y004390D01*
X018254Y004466D02*
X018329Y004466D01*
X021836Y004691D02*
X021986Y004691D01*
X021911Y004691D02*
X021911Y004240D01*
X021836Y004240D02*
X021986Y004240D01*
X022143Y004240D02*
X022143Y004691D01*
X022368Y004691D01*
X022443Y004616D01*
X022443Y004466D01*
X022368Y004390D01*
X022143Y004390D01*
X022293Y004390D02*
X022443Y004240D01*
X022603Y004466D02*
X022904Y004466D01*
X022829Y004691D02*
X022829Y004240D01*
X022603Y004466D02*
X022829Y004691D01*
X026336Y004691D02*
X026486Y004691D01*
X026411Y004691D02*
X026411Y004240D01*
X026336Y004240D02*
X026486Y004240D01*
X026643Y004240D02*
X026643Y004691D01*
X026868Y004691D01*
X026943Y004616D01*
X026943Y004466D01*
X026868Y004390D01*
X026643Y004390D01*
X026793Y004390D02*
X026943Y004240D01*
X027103Y004315D02*
X027179Y004240D01*
X027329Y004240D01*
X027404Y004315D01*
X027404Y004466D01*
X027329Y004541D01*
X027254Y004541D01*
X027103Y004466D01*
X027103Y004691D01*
X027404Y004691D01*
X027504Y007859D02*
X027654Y008009D01*
X027504Y008159D01*
X027954Y008159D01*
X027879Y008320D02*
X027579Y008320D01*
X027504Y008395D01*
X027504Y008545D01*
X027579Y008620D01*
X027879Y008620D01*
X027954Y008545D01*
X027954Y008395D01*
X027879Y008320D01*
X027954Y007859D02*
X027504Y007859D01*
X027504Y008780D02*
X027504Y009080D01*
X027504Y008930D02*
X027954Y008930D01*
X027939Y013180D02*
X028014Y013255D01*
X028014Y013406D01*
X027939Y013481D01*
X027864Y013481D01*
X027789Y013406D01*
X027789Y013255D01*
X027714Y013180D01*
X027639Y013180D01*
X027564Y013255D01*
X027564Y013406D01*
X027639Y013481D01*
X027564Y013641D02*
X027939Y013641D01*
X028014Y013716D01*
X028014Y013866D01*
X027939Y013941D01*
X027564Y013941D01*
X027564Y014101D02*
X027564Y014326D01*
X027639Y014401D01*
X027789Y014401D01*
X027864Y014326D01*
X027864Y014101D01*
X028014Y014101D02*
X027564Y014101D01*
X026294Y018710D02*
X025994Y018710D01*
X026144Y018710D02*
X026144Y019161D01*
X025994Y019011D01*
X025834Y019086D02*
X025759Y019161D01*
X025609Y019161D01*
X025534Y019086D01*
X025534Y019011D01*
X025609Y018936D01*
X025759Y018936D01*
X025834Y018860D01*
X025834Y018785D01*
X025759Y018710D01*
X025609Y018710D01*
X025534Y018785D01*
X015584Y012628D02*
X015584Y012328D01*
X015584Y012478D02*
X015134Y012478D01*
X015284Y012328D01*
X015209Y012167D02*
X015134Y012092D01*
X015134Y011942D01*
X015209Y011867D01*
X015509Y011867D01*
X015584Y011942D01*
X015584Y012092D01*
X015509Y012167D01*
X015584Y011710D02*
X015584Y011560D01*
X015584Y011635D02*
X015134Y011635D01*
X015134Y011560D02*
X015134Y011710D01*
X012274Y011392D02*
X012274Y011091D01*
X011974Y011392D01*
X011899Y011392D01*
X011824Y011317D01*
X011824Y011166D01*
X011899Y011091D01*
X011899Y010931D02*
X011824Y010856D01*
X011824Y010631D01*
X012274Y010631D01*
X012274Y010856D01*
X012199Y010931D01*
X011899Y010931D01*
X011824Y010471D02*
X011824Y010171D01*
X012274Y010171D01*
X012274Y010471D01*
X012049Y010321D02*
X012049Y010171D01*
X012274Y010011D02*
X012274Y009710D01*
X011824Y009710D01*
X011824Y009242D02*
X012274Y009242D01*
X012274Y009392D02*
X012274Y009091D01*
X012199Y008931D02*
X012274Y008856D01*
X012274Y008631D01*
X011824Y008631D01*
X011824Y008856D01*
X011899Y008931D01*
X012199Y008931D01*
X011974Y009091D02*
X011824Y009242D01*
X011824Y008471D02*
X011824Y008171D01*
X012274Y008171D01*
X012274Y008471D01*
X012049Y008321D02*
X012049Y008171D01*
X012274Y008011D02*
X012274Y007710D01*
X011824Y007710D01*
X010284Y010290D02*
X009834Y010290D01*
X009834Y010515D01*
X009909Y010590D01*
X010059Y010590D01*
X010134Y010515D01*
X010134Y010290D01*
X010134Y010440D02*
X010284Y010590D01*
X010284Y010750D02*
X009984Y011050D01*
X009909Y011050D01*
X009834Y010975D01*
X009834Y010825D01*
X009909Y010750D01*
X010284Y010750D02*
X010284Y011050D01*
X011744Y014869D02*
X012194Y014869D01*
X012194Y015169D01*
X012194Y015329D02*
X011744Y015329D01*
X011744Y015629D01*
X011744Y015790D02*
X011744Y016015D01*
X011819Y016090D01*
X012119Y016090D01*
X012194Y016015D01*
X012194Y015790D01*
X011744Y015790D01*
X012194Y015629D02*
X012194Y015329D01*
X011969Y015329D02*
X011969Y015479D01*
X012119Y016250D02*
X012194Y016325D01*
X012194Y016475D01*
X012119Y016550D01*
X012044Y016550D01*
X011969Y016475D01*
X011969Y016400D01*
X011969Y016475D02*
X011894Y016550D01*
X011819Y016550D01*
X011744Y016475D01*
X011744Y016325D01*
X011819Y016250D01*
X011744Y016869D02*
X012194Y016869D01*
X012194Y017169D01*
X012194Y017329D02*
X011744Y017329D01*
X011744Y017629D01*
X011744Y017790D02*
X011744Y018015D01*
X011819Y018090D01*
X012119Y018090D01*
X012194Y018015D01*
X012194Y017790D01*
X011744Y017790D01*
X012194Y017629D02*
X012194Y017329D01*
X011969Y017329D02*
X011969Y017479D01*
X011969Y018250D02*
X011969Y018550D01*
X012194Y018475D02*
X011744Y018475D01*
X011969Y018250D01*
X010284Y017975D02*
X009834Y017975D01*
X010059Y017750D01*
X010059Y018050D01*
X010059Y017590D02*
X010134Y017515D01*
X010134Y017290D01*
X010134Y017440D02*
X010284Y017590D01*
X010059Y017590D02*
X009909Y017590D01*
X009834Y017515D01*
X009834Y017290D01*
X010284Y017290D01*
D13*
X013656Y016990D02*
X013704Y017020D01*
X013749Y017053D01*
X013792Y017089D01*
X013833Y017127D01*
X013870Y017169D01*
X013905Y017213D01*
X013936Y017259D01*
X013965Y017308D01*
X013989Y017358D01*
X014010Y017410D01*
X014028Y017464D01*
X014041Y017518D01*
X014051Y017573D01*
X014057Y017629D01*
X014059Y017685D01*
X014057Y017738D01*
X014052Y017792D01*
X014043Y017844D01*
X014031Y017896D01*
X014015Y017947D01*
X013996Y017997D01*
X013973Y018046D01*
X013947Y018093D01*
X013919Y018138D01*
X013887Y018181D01*
X013853Y018221D01*
X013815Y018260D01*
X013776Y018296D01*
X012459Y017685D02*
X012461Y017631D01*
X012466Y017577D01*
X012475Y017524D01*
X012488Y017471D01*
X012504Y017420D01*
X012524Y017370D01*
X012547Y017321D01*
X012573Y017273D01*
X012602Y017228D01*
X012635Y017185D01*
X012670Y017144D01*
X012708Y017105D01*
X012748Y017069D01*
X012791Y017036D01*
X012836Y017006D01*
X012883Y016979D01*
X012459Y017685D02*
X012461Y017739D01*
X012466Y017792D01*
X012475Y017846D01*
X012488Y017898D01*
X012504Y017949D01*
X012524Y018000D01*
X012546Y018049D01*
X012572Y018096D01*
X012602Y018141D01*
X012634Y018184D01*
X012669Y018225D01*
X012707Y018264D01*
X012747Y018300D01*
X012862Y016380D02*
X012814Y016350D01*
X012769Y016317D01*
X012726Y016281D01*
X012685Y016243D01*
X012648Y016201D01*
X012613Y016157D01*
X012582Y016111D01*
X012553Y016062D01*
X012529Y016012D01*
X012508Y015960D01*
X012490Y015906D01*
X012477Y015852D01*
X012467Y015797D01*
X012461Y015741D01*
X012459Y015685D01*
X012461Y015632D01*
X012466Y015578D01*
X012475Y015526D01*
X012487Y015474D01*
X012503Y015423D01*
X012522Y015373D01*
X012545Y015324D01*
X012571Y015277D01*
X012599Y015232D01*
X012631Y015189D01*
X012665Y015149D01*
X012703Y015110D01*
X012742Y015074D01*
X014059Y015685D02*
X014057Y015739D01*
X014052Y015793D01*
X014043Y015846D01*
X014030Y015899D01*
X014014Y015950D01*
X013994Y016000D01*
X013971Y016049D01*
X013945Y016097D01*
X013916Y016142D01*
X013883Y016185D01*
X013848Y016226D01*
X013810Y016265D01*
X013770Y016301D01*
X013727Y016334D01*
X013682Y016364D01*
X013635Y016391D01*
X014059Y015685D02*
X014057Y015631D01*
X014052Y015578D01*
X014043Y015524D01*
X014030Y015472D01*
X014014Y015421D01*
X013994Y015370D01*
X013972Y015321D01*
X013946Y015274D01*
X013916Y015229D01*
X013884Y015186D01*
X013849Y015145D01*
X013811Y015106D01*
X013771Y015070D01*
X012459Y010685D02*
X012461Y010631D01*
X012466Y010577D01*
X012475Y010524D01*
X012488Y010471D01*
X012504Y010420D01*
X012524Y010370D01*
X012547Y010321D01*
X012573Y010273D01*
X012602Y010228D01*
X012635Y010185D01*
X012670Y010144D01*
X012708Y010105D01*
X012748Y010069D01*
X012791Y010036D01*
X012836Y010006D01*
X012883Y009979D01*
X013656Y009990D02*
X013704Y010020D01*
X013749Y010053D01*
X013792Y010089D01*
X013833Y010127D01*
X013870Y010169D01*
X013905Y010213D01*
X013936Y010259D01*
X013965Y010308D01*
X013989Y010358D01*
X014010Y010410D01*
X014028Y010464D01*
X014041Y010518D01*
X014051Y010573D01*
X014057Y010629D01*
X014059Y010685D01*
X014057Y010738D01*
X014052Y010792D01*
X014043Y010844D01*
X014031Y010896D01*
X014015Y010947D01*
X013996Y010997D01*
X013973Y011046D01*
X013947Y011093D01*
X013919Y011138D01*
X013887Y011181D01*
X013853Y011221D01*
X013815Y011260D01*
X013776Y011296D01*
X012747Y011300D02*
X012707Y011264D01*
X012669Y011225D01*
X012634Y011184D01*
X012602Y011141D01*
X012572Y011096D01*
X012546Y011049D01*
X012524Y011000D01*
X012504Y010949D01*
X012488Y010898D01*
X012475Y010846D01*
X012466Y010792D01*
X012461Y010739D01*
X012459Y010685D01*
X012862Y009380D02*
X012814Y009350D01*
X012769Y009317D01*
X012726Y009281D01*
X012685Y009243D01*
X012648Y009201D01*
X012613Y009157D01*
X012582Y009111D01*
X012553Y009062D01*
X012529Y009012D01*
X012508Y008960D01*
X012490Y008906D01*
X012477Y008852D01*
X012467Y008797D01*
X012461Y008741D01*
X012459Y008685D01*
X012461Y008632D01*
X012466Y008578D01*
X012475Y008526D01*
X012487Y008474D01*
X012503Y008423D01*
X012522Y008373D01*
X012545Y008324D01*
X012571Y008277D01*
X012599Y008232D01*
X012631Y008189D01*
X012665Y008149D01*
X012703Y008110D01*
X012742Y008074D01*
X014059Y008685D02*
X014057Y008739D01*
X014052Y008793D01*
X014043Y008846D01*
X014030Y008899D01*
X014014Y008950D01*
X013994Y009000D01*
X013971Y009049D01*
X013945Y009097D01*
X013916Y009142D01*
X013883Y009185D01*
X013848Y009226D01*
X013810Y009265D01*
X013770Y009301D01*
X013727Y009334D01*
X013682Y009364D01*
X013635Y009391D01*
X014059Y008685D02*
X014057Y008631D01*
X014052Y008578D01*
X014043Y008524D01*
X014030Y008472D01*
X014014Y008421D01*
X013994Y008370D01*
X013972Y008321D01*
X013946Y008274D01*
X013916Y008229D01*
X013884Y008186D01*
X013849Y008145D01*
X013811Y008106D01*
X013771Y008070D01*
D14*
X015239Y009277D02*
X015239Y009452D01*
X015297Y009511D01*
X015414Y009511D01*
X015472Y009452D01*
X015472Y009277D01*
X015589Y009277D02*
X015239Y009277D01*
X015472Y009394D02*
X015589Y009511D01*
X015589Y009636D02*
X015589Y009870D01*
X015589Y009753D02*
X015239Y009753D01*
X015355Y009636D01*
X014279Y011915D02*
X013929Y011915D01*
X013929Y012090D01*
X013987Y012149D01*
X014104Y012149D01*
X014162Y012090D01*
X014162Y011915D01*
X014162Y012032D02*
X014279Y012149D01*
X014221Y012274D02*
X014104Y012274D01*
X014104Y012450D01*
X014162Y012508D01*
X014221Y012508D01*
X014279Y012450D01*
X014279Y012333D01*
X014221Y012274D01*
X014104Y012274D02*
X013987Y012391D01*
X013929Y012508D01*
X015239Y016277D02*
X015239Y016452D01*
X015297Y016511D01*
X015414Y016511D01*
X015472Y016452D01*
X015472Y016277D01*
X015472Y016394D02*
X015589Y016511D01*
X015531Y016636D02*
X015589Y016695D01*
X015589Y016811D01*
X015531Y016870D01*
X015472Y016870D01*
X015414Y016811D01*
X015414Y016753D01*
X015414Y016811D02*
X015355Y016870D01*
X015297Y016870D01*
X015239Y016811D01*
X015239Y016695D01*
X015297Y016636D01*
X015239Y016277D02*
X015589Y016277D01*
X023929Y012508D02*
X023929Y012274D01*
X024104Y012274D01*
X024045Y012391D01*
X024045Y012450D01*
X024104Y012508D01*
X024221Y012508D01*
X024279Y012450D01*
X024279Y012333D01*
X024221Y012274D01*
X024279Y012149D02*
X024162Y012032D01*
X024162Y012090D02*
X024162Y011915D01*
X024279Y011915D02*
X023929Y011915D01*
X023929Y012090D01*
X023987Y012149D01*
X024104Y012149D01*
X024162Y012090D01*
X024239Y017277D02*
X024239Y017452D01*
X024297Y017511D01*
X024414Y017511D01*
X024472Y017452D01*
X024472Y017277D01*
X024589Y017277D02*
X024239Y017277D01*
X024472Y017394D02*
X024589Y017511D01*
X024589Y017636D02*
X024531Y017636D01*
X024297Y017870D01*
X024239Y017870D01*
X024239Y017636D01*
D15*
X025309Y017590D02*
X025309Y016785D01*
X025659Y015985D02*
X027359Y015985D01*
X027709Y016785D02*
X027709Y017578D01*
X027359Y018385D02*
X025659Y018385D01*
X025809Y017185D02*
X025811Y017237D01*
X025817Y017289D01*
X025827Y017341D01*
X025840Y017391D01*
X025857Y017441D01*
X025878Y017489D01*
X025903Y017535D01*
X025931Y017579D01*
X025962Y017621D01*
X025996Y017661D01*
X026033Y017698D01*
X026073Y017732D01*
X026115Y017763D01*
X026159Y017791D01*
X026205Y017816D01*
X026253Y017837D01*
X026303Y017854D01*
X026353Y017867D01*
X026405Y017877D01*
X026457Y017883D01*
X026509Y017885D01*
X026561Y017883D01*
X026613Y017877D01*
X026665Y017867D01*
X026715Y017854D01*
X026765Y017837D01*
X026813Y017816D01*
X026859Y017791D01*
X026903Y017763D01*
X026945Y017732D01*
X026985Y017698D01*
X027022Y017661D01*
X027056Y017621D01*
X027087Y017579D01*
X027115Y017535D01*
X027140Y017489D01*
X027161Y017441D01*
X027178Y017391D01*
X027191Y017341D01*
X027201Y017289D01*
X027207Y017237D01*
X027209Y017185D01*
X027207Y017133D01*
X027201Y017081D01*
X027191Y017029D01*
X027178Y016979D01*
X027161Y016929D01*
X027140Y016881D01*
X027115Y016835D01*
X027087Y016791D01*
X027056Y016749D01*
X027022Y016709D01*
X026985Y016672D01*
X026945Y016638D01*
X026903Y016607D01*
X026859Y016579D01*
X026813Y016554D01*
X026765Y016533D01*
X026715Y016516D01*
X026665Y016503D01*
X026613Y016493D01*
X026561Y016487D01*
X026509Y016485D01*
X026457Y016487D01*
X026405Y016493D01*
X026353Y016503D01*
X026303Y016516D01*
X026253Y016533D01*
X026205Y016554D01*
X026159Y016579D01*
X026115Y016607D01*
X026073Y016638D01*
X026033Y016672D01*
X025996Y016709D01*
X025962Y016749D01*
X025931Y016791D01*
X025903Y016835D01*
X025878Y016881D01*
X025857Y016929D01*
X025840Y016979D01*
X025827Y017029D01*
X025817Y017081D01*
X025811Y017133D01*
X025809Y017185D01*
X028259Y014935D02*
X028509Y015185D01*
X029009Y015185D01*
X029259Y014935D01*
X029259Y014435D01*
X029009Y014185D01*
X029259Y013935D01*
X029259Y013435D01*
X029009Y013185D01*
X028509Y013185D01*
X028259Y013435D01*
X028259Y013935D01*
X028509Y014185D01*
X028259Y014435D01*
X028259Y014935D01*
X028509Y011685D02*
X028259Y011435D01*
X028259Y010935D01*
X028509Y010685D01*
X028259Y010435D01*
X028259Y009935D01*
X028509Y009685D01*
X028259Y009435D01*
X028259Y008935D01*
X028509Y008685D01*
X028259Y008435D01*
X028259Y007935D01*
X028509Y007685D01*
X029009Y007685D01*
X029259Y007935D01*
X029259Y008435D01*
X029009Y008685D01*
X029259Y008935D01*
X029259Y009435D01*
X029009Y009685D01*
X029259Y009935D01*
X029259Y010435D01*
X029009Y010685D01*
X029259Y010935D01*
X029259Y011435D01*
X029009Y011685D01*
X028509Y011685D01*
X025275Y010685D02*
X025277Y010747D01*
X025283Y010810D01*
X025293Y010871D01*
X025307Y010932D01*
X025324Y010992D01*
X025345Y011051D01*
X025371Y011108D01*
X025399Y011163D01*
X025431Y011217D01*
X025467Y011268D01*
X025505Y011318D01*
X025547Y011364D01*
X025591Y011408D01*
X025639Y011449D01*
X025688Y011487D01*
X025740Y011521D01*
X025794Y011552D01*
X025850Y011580D01*
X025908Y011604D01*
X025967Y011625D01*
X026027Y011641D01*
X026088Y011654D01*
X026150Y011663D01*
X026212Y011668D01*
X026275Y011669D01*
X026337Y011666D01*
X026399Y011659D01*
X026461Y011648D01*
X026521Y011633D01*
X026581Y011615D01*
X026639Y011593D01*
X026696Y011567D01*
X026751Y011537D01*
X026804Y011504D01*
X026855Y011468D01*
X026903Y011429D01*
X026949Y011386D01*
X026992Y011341D01*
X027032Y011293D01*
X027069Y011243D01*
X027103Y011190D01*
X027134Y011136D01*
X027160Y011080D01*
X027184Y011022D01*
X027203Y010962D01*
X027219Y010902D01*
X027231Y010840D01*
X027239Y010779D01*
X027243Y010716D01*
X027243Y010654D01*
X027239Y010591D01*
X027231Y010530D01*
X027219Y010468D01*
X027203Y010408D01*
X027184Y010348D01*
X027160Y010290D01*
X027134Y010234D01*
X027103Y010180D01*
X027069Y010127D01*
X027032Y010077D01*
X026992Y010029D01*
X026949Y009984D01*
X026903Y009941D01*
X026855Y009902D01*
X026804Y009866D01*
X026751Y009833D01*
X026696Y009803D01*
X026639Y009777D01*
X026581Y009755D01*
X026521Y009737D01*
X026461Y009722D01*
X026399Y009711D01*
X026337Y009704D01*
X026275Y009701D01*
X026212Y009702D01*
X026150Y009707D01*
X026088Y009716D01*
X026027Y009729D01*
X025967Y009745D01*
X025908Y009766D01*
X025850Y009790D01*
X025794Y009818D01*
X025740Y009849D01*
X025688Y009883D01*
X025639Y009921D01*
X025591Y009962D01*
X025547Y010006D01*
X025505Y010052D01*
X025467Y010102D01*
X025431Y010153D01*
X025399Y010207D01*
X025371Y010262D01*
X025345Y010319D01*
X025324Y010378D01*
X025307Y010438D01*
X025293Y010499D01*
X025283Y010560D01*
X025277Y010623D01*
X025275Y010685D01*
X025897Y010431D02*
X025897Y009931D01*
X026509Y006185D02*
X026259Y005935D01*
X026259Y005435D01*
X026509Y005185D01*
X027009Y005185D01*
X027259Y005435D01*
X027509Y005185D01*
X028009Y005185D01*
X028259Y005435D01*
X028509Y005185D01*
X029009Y005185D01*
X029259Y005435D01*
X029259Y005935D01*
X029009Y006185D01*
X028509Y006185D01*
X028259Y005935D01*
X028009Y006185D01*
X027509Y006185D01*
X027259Y005935D01*
X027009Y006185D01*
X026509Y006185D01*
X024759Y005935D02*
X024759Y005435D01*
X024509Y005185D01*
X024009Y005185D01*
X023759Y005435D01*
X023509Y005185D01*
X023009Y005185D01*
X022759Y005435D01*
X022509Y005185D01*
X022009Y005185D01*
X021759Y005435D01*
X021759Y005935D01*
X022009Y006185D01*
X022509Y006185D01*
X022759Y005935D01*
X023009Y006185D01*
X023509Y006185D01*
X023759Y005935D01*
X024009Y006185D01*
X024509Y006185D01*
X024759Y005935D01*
X020259Y005935D02*
X020259Y005435D01*
X020009Y005185D01*
X019509Y005185D01*
X019259Y005435D01*
X019009Y005185D01*
X018509Y005185D01*
X018259Y005435D01*
X018009Y005185D01*
X017509Y005185D01*
X017259Y005435D01*
X017259Y005935D01*
X017509Y006185D01*
X018009Y006185D01*
X018259Y005935D01*
X018509Y006185D01*
X019009Y006185D01*
X019259Y005935D01*
X019509Y006185D01*
X020009Y006185D01*
X020259Y005935D01*
X015759Y005935D02*
X015759Y005435D01*
X015509Y005185D01*
X015009Y005185D01*
X014759Y005435D01*
X014509Y005185D01*
X014009Y005185D01*
X013759Y005435D01*
X013509Y005185D01*
X013009Y005185D01*
X012759Y005435D01*
X012759Y005935D01*
X013009Y006185D01*
X013509Y006185D01*
X013759Y005935D01*
X014009Y006185D01*
X014509Y006185D01*
X014759Y005935D01*
X015009Y006185D01*
X015509Y006185D01*
X015759Y005935D01*
X011259Y005935D02*
X011259Y005435D01*
X011009Y005185D01*
X010509Y005185D01*
X010259Y005435D01*
X010009Y005185D01*
X009509Y005185D01*
X009259Y005435D01*
X009009Y005185D01*
X008509Y005185D01*
X008259Y005435D01*
X008259Y005935D01*
X008509Y006185D01*
X009009Y006185D01*
X009259Y005935D01*
X009509Y006185D01*
X010009Y006185D01*
X010259Y005935D01*
X010509Y006185D01*
X011009Y006185D01*
X011259Y005935D01*
X017759Y015185D02*
X017759Y016185D01*
X019759Y016185D01*
X019759Y015185D01*
X017759Y015185D01*
X018759Y015435D02*
X018759Y015935D01*
D16*
X025504Y010563D02*
X025529Y010588D01*
X025554Y010588D01*
X025579Y010563D01*
X025604Y010588D01*
X025629Y010588D01*
X025654Y010563D01*
X025654Y010513D01*
X025629Y010488D01*
X025629Y010440D02*
X025654Y010415D01*
X025654Y010365D01*
X025629Y010340D01*
X025529Y010340D01*
X025504Y010365D01*
X025504Y010415D01*
X025529Y010440D01*
X025529Y010488D02*
X025504Y010513D01*
X025504Y010563D01*
X025579Y010563D02*
X025579Y010538D01*
D17*
X018137Y016445D02*
X017990Y016445D01*
X018063Y016445D02*
X018063Y016666D01*
X017990Y016592D01*
X017916Y016629D02*
X017879Y016666D01*
X017806Y016666D01*
X017769Y016629D01*
X017769Y016482D01*
X017806Y016445D01*
X017879Y016445D01*
X017916Y016482D01*
M02*
