G75*
G70*
%OFA0B0*%
%FSLAX24Y24*%
%IPPOS*%
%LPD*%
%AMOC8*
5,1,8,0,0,1.08239X$1,22.5*
%
%ADD10C,0.0640*%
%ADD11OC8,0.0640*%
%ADD12R,0.0820X0.0820*%
%ADD13C,0.0820*%
%ADD14C,0.1380*%
%ADD15R,0.0730X0.0730*%
%ADD16C,0.0730*%
D10*
X016259Y010905D02*
X016259Y011465D01*
X017259Y011465D02*
X017259Y010905D01*
X018259Y010905D02*
X018259Y011465D01*
X019259Y011465D02*
X019259Y010905D01*
X020259Y010905D02*
X020259Y011465D01*
X021259Y011465D02*
X021259Y010905D01*
X022259Y010905D02*
X022259Y011465D01*
X023259Y011465D02*
X023259Y010905D01*
X023259Y013905D02*
X023259Y014465D01*
X022259Y014465D02*
X022259Y013905D01*
X021259Y013905D02*
X021259Y014465D01*
X020259Y014465D02*
X020259Y013905D01*
X019259Y013905D02*
X019259Y014465D01*
X018259Y014465D02*
X018259Y013905D01*
X017259Y013905D02*
X017259Y014465D01*
X016259Y014465D02*
X016259Y013905D01*
D11*
X014759Y013685D03*
X014759Y015185D03*
X013259Y015185D03*
X013259Y016185D03*
X013259Y017185D03*
X013259Y018185D03*
X014759Y017185D03*
X010759Y016185D03*
X010759Y018185D03*
X014759Y011685D03*
X013259Y011185D03*
X013259Y010185D03*
X013259Y009185D03*
X014759Y010185D03*
X014759Y008185D03*
X013259Y008185D03*
X010759Y009185D03*
X010759Y011185D03*
X023759Y016185D03*
X023759Y018185D03*
X024759Y013685D03*
X024759Y011685D03*
D12*
X028759Y011185D03*
D13*
X008759Y005685D03*
X009759Y005685D03*
X010759Y005685D03*
X013259Y005685D03*
X014259Y005685D03*
X015259Y005685D03*
X017759Y005685D03*
X018759Y005685D03*
X019759Y005685D03*
X022259Y005685D03*
X023259Y005685D03*
X024259Y005685D03*
X026759Y005685D03*
X027759Y005685D03*
X028759Y005685D03*
X028759Y008185D03*
X028759Y009185D03*
X028759Y010185D03*
X028759Y013615D03*
X028759Y014755D03*
X027789Y016295D03*
X027789Y018075D03*
X025229Y018075D03*
X025229Y016295D03*
X024759Y020685D03*
X025759Y020685D03*
X026759Y020685D03*
X027759Y020685D03*
X023759Y020685D03*
X022759Y020685D03*
X021759Y020685D03*
X020759Y020685D03*
X019259Y020685D03*
X018259Y020685D03*
X017259Y020685D03*
X016259Y020685D03*
X015259Y020685D03*
X014259Y020685D03*
X013259Y020685D03*
X012259Y020685D03*
X015759Y001685D03*
X016759Y001685D03*
X017759Y001685D03*
X018759Y001685D03*
X019759Y001685D03*
X020759Y001685D03*
X022759Y001685D03*
X023759Y001685D03*
X024759Y001685D03*
X025759Y001685D03*
X026759Y001685D03*
X027759Y001685D03*
D14*
X028759Y003685D03*
X008759Y020685D03*
D15*
X026259Y011185D03*
D16*
X026259Y010185D03*
X019259Y015685D03*
X018259Y015685D03*
M02*
